<mxfile host="65bd71144e">
    <diagram id="C7YrkhICm45DaJ5SDR4q" name="Page-1">
        <mxGraphModel dx="524" dy="618" grid="0" gridSize="10" guides="1" tooltips="1" connect="1" arrows="1" fold="1" page="1" pageScale="1" pageWidth="850" pageHeight="1100" background="#ffffff" math="0" shadow="0">
            <root>
                <mxCell id="0"/>
                <mxCell id="1" parent="0"/>
                <mxCell id="22" value="" style="rounded=0;whiteSpace=wrap;html=1;fillColor=none;" parent="1" vertex="1">
                    <mxGeometry x="973" y="158" width="634" height="424" as="geometry"/>
                </mxCell>
                <mxCell id="2" value="" style="shape=folder;fontStyle=1;spacingTop=10;tabWidth=190;tabHeight=35;tabPosition=left;html=1;fillColor=none;strokeColor=#000000;" parent="1" vertex="1">
                    <mxGeometry x="996" y="181" width="580" height="375" as="geometry"/>
                </mxCell>
                <mxCell id="3" value="&lt;font color=&quot;#030303&quot;&gt;CheepDTO&lt;/font&gt;" style="swimlane;fontStyle=1;align=center;verticalAlign=top;childLayout=stackLayout;horizontal=1;startSize=26;horizontalStack=0;resizeParent=1;resizeParentMax=0;resizeLast=0;collapsible=1;marginBottom=0;whiteSpace=wrap;html=1;strokeColor=#000000;fillColor=none;" parent="1" vertex="1">
                    <mxGeometry x="1041" y="254" width="160" height="108" as="geometry"/>
                </mxCell>
                <mxCell id="4" value="&lt;font color=&quot;#0d0d0d&quot;&gt;+ CheepId : Guid&lt;br&gt;+ AuthorName : string&lt;br&gt;+ Likes : int&lt;br&gt;+ Message : string&lt;br&gt;+ TimeStamp :&amp;nbsp;&lt;/font&gt;&lt;span style=&quot;color: rgb(13, 13, 13);&quot;&gt;DateTime&lt;/span&gt;" style="text;strokeColor=none;fillColor=none;align=left;verticalAlign=top;spacingLeft=4;spacingRight=4;overflow=hidden;rotatable=0;points=[[0,0.5],[1,0.5]];portConstraint=eastwest;whiteSpace=wrap;html=1;" parent="3" vertex="1">
                    <mxGeometry y="26" width="160" height="82" as="geometry"/>
                </mxCell>
                <mxCell id="5" value="&lt;font color=&quot;#0d0d0d&quot;&gt;AuthorDTO&lt;/font&gt;" style="swimlane;fontStyle=1;align=center;verticalAlign=top;childLayout=stackLayout;horizontal=1;startSize=26;horizontalStack=0;resizeParent=1;resizeParentMax=0;resizeLast=0;collapsible=1;marginBottom=0;whiteSpace=wrap;html=1;fillColor=none;strokeWidth=1;strokeColor=#030303;" parent="1" vertex="1">
                    <mxGeometry x="1031" y="410" width="180" height="121" as="geometry"/>
                </mxCell>
                <mxCell id="6" value="&lt;font color=&quot;#0d0d0d&quot;&gt;+ AuthorID : Guid&lt;br&gt;+ Name : string&lt;br&gt;+ Email : string&lt;br&gt;+ Cheeps :&amp;nbsp;&lt;/font&gt;&lt;span style=&quot;color: rgb(13, 13, 13);&quot;&gt;List&amp;lt;CheepDTO&amp;gt;&lt;/span&gt;&lt;font color=&quot;#0d0d0d&quot;&gt;&lt;br&gt;+ Followed :&amp;nbsp;&lt;/font&gt;&lt;span style=&quot;color: rgb(13, 13, 13);&quot;&gt;List&amp;lt;AuthorDTO&amp;gt;&lt;/span&gt;&lt;font color=&quot;#0d0d0d&quot;&gt;&lt;br&gt;+ Followers :&amp;nbsp;&lt;/font&gt;&lt;span style=&quot;color: rgb(13, 13, 13);&quot;&gt;List&amp;lt;AuthorDTO&amp;gt;&lt;/span&gt;&lt;font color=&quot;#0d0d0d&quot;&gt;&lt;br&gt;&lt;/font&gt;" style="text;strokeColor=none;fillColor=none;align=left;verticalAlign=top;spacingLeft=4;spacingRight=4;overflow=hidden;rotatable=0;points=[[0,0.5],[1,0.5]];portConstraint=eastwest;whiteSpace=wrap;html=1;" parent="5" vertex="1">
                    <mxGeometry y="26" width="180" height="95" as="geometry"/>
                </mxCell>
                <mxCell id="7" value="&lt;font color=&quot;#000000&quot;&gt;CheepDTO*&lt;/font&gt;" style="text;html=1;strokeColor=none;fillColor=none;align=center;verticalAlign=middle;whiteSpace=wrap;rounded=0;" parent="1" vertex="1">
                    <mxGeometry x="1054" y="374" width="60" height="30" as="geometry"/>
                </mxCell>
                <mxCell id="8" value="&lt;font color=&quot;#000000&quot;&gt;CheepCreateDTO&lt;/font&gt;" style="swimlane;fontStyle=1;align=center;verticalAlign=top;childLayout=stackLayout;horizontal=1;startSize=26;horizontalStack=0;resizeParent=1;resizeParentMax=0;resizeLast=0;collapsible=1;marginBottom=0;whiteSpace=wrap;html=1;strokeColor=#000000;fillColor=none;" parent="1" vertex="1">
                    <mxGeometry x="1397" y="346" width="160" height="70" as="geometry"/>
                </mxCell>
                <mxCell id="9" value="&lt;font color=&quot;#000000&quot;&gt;+ Author : string&lt;br&gt;+ Text : string&lt;/font&gt;" style="text;strokeColor=none;fillColor=none;align=left;verticalAlign=top;spacingLeft=4;spacingRight=4;overflow=hidden;rotatable=0;points=[[0,0.5],[1,0.5]];portConstraint=eastwest;whiteSpace=wrap;html=1;" parent="8" vertex="1">
                    <mxGeometry y="26" width="160" height="44" as="geometry"/>
                </mxCell>
                <mxCell id="10" value="&lt;font color=&quot;#0d0d0d&quot; style=&quot;font-size: 19px;&quot;&gt;Chirp.Core&lt;/font&gt;" style="text;html=1;strokeColor=none;fillColor=none;align=center;verticalAlign=middle;whiteSpace=wrap;rounded=0;" parent="1" vertex="1">
                    <mxGeometry x="1056" y="181" width="60" height="30" as="geometry"/>
                </mxCell>
                <mxCell id="11" value="&lt;font color=&quot;#000000&quot;&gt;«interface»&lt;br&gt;&lt;b&gt;ICheepRepository&lt;/b&gt;&lt;/font&gt;" style="html=1;whiteSpace=wrap;strokeColor=#000000;fillColor=none;" parent="1" vertex="1">
                    <mxGeometry x="1249" y="254" width="110" height="50" as="geometry"/>
                </mxCell>
                <mxCell id="12" value="&lt;font color=&quot;#030303&quot;&gt;«interface»&lt;br&gt;&lt;b&gt;IAuthorRepository&lt;/b&gt;&lt;/font&gt;" style="html=1;whiteSpace=wrap;strokeColor=#000000;fillColor=none;" parent="1" vertex="1">
                    <mxGeometry x="1249" y="324" width="110" height="50" as="geometry"/>
                </mxCell>
                <mxCell id="13" value="&lt;font color=&quot;#030303&quot;&gt;«interface»&lt;br&gt;&lt;b&gt;ICheepService&lt;/b&gt;&lt;/font&gt;" style="html=1;whiteSpace=wrap;strokeColor=#000000;fillColor=none;" parent="1" vertex="1">
                    <mxGeometry x="1249" y="397" width="110" height="50" as="geometry"/>
                </mxCell>
                <mxCell id="14" style="edgeStyle=none;html=1;entryX=1;entryY=0.5;entryDx=0;entryDy=0;strokeColor=#000000;fontColor=#000000;endArrow=block;endFill=0;exitX=0.009;exitY=0.003;exitDx=0;exitDy=0;exitPerimeter=0;rounded=0;dashed=1;" parent="1" source="17" target="18" edge="1">
                    <mxGeometry relative="1" as="geometry"/>
                </mxCell>
                <mxCell id="15" style="edgeStyle=none;rounded=0;html=1;entryX=0.503;entryY=0.988;entryDx=0;entryDy=0;strokeColor=#000000;fontColor=#000000;endArrow=classic;endFill=1;entryPerimeter=0;" parent="1" source="16" target="9" edge="1">
                    <mxGeometry relative="1" as="geometry"/>
                </mxCell>
                <mxCell id="16" value="CheepCreateValidator" style="swimlane;fontStyle=1;align=center;verticalAlign=top;childLayout=stackLayout;horizontal=1;startSize=26;horizontalStack=0;resizeParent=1;resizeParentMax=0;resizeLast=0;collapsible=1;marginBottom=0;labelBackgroundColor=none;strokeColor=#000000;strokeWidth=1;fontColor=#000000;fillColor=none;" parent="1" vertex="1">
                    <mxGeometry x="1397" y="470" width="160" height="52" as="geometry"/>
                </mxCell>
                <mxCell id="17" value="+ CheepCreateValidator()" style="text;strokeColor=none;fillColor=none;align=left;verticalAlign=top;spacingLeft=4;spacingRight=4;overflow=hidden;rotatable=0;points=[[0,0.5],[1,0.5]];portConstraint=eastwest;labelBackgroundColor=none;strokeWidth=1;fontColor=#000000;" parent="16" vertex="1">
                    <mxGeometry y="26" width="160" height="26" as="geometry"/>
                </mxCell>
                <mxCell id="18" value="«interface»&lt;br&gt;&lt;b&gt;AbstractValidator&lt;/b&gt;" style="html=1;labelBackgroundColor=none;strokeColor=#000000;strokeWidth=1;fontColor=#000000;fillColor=none;" parent="1" vertex="1">
                    <mxGeometry x="1249" y="471" width="110" height="50" as="geometry"/>
                </mxCell>
                <mxCell id="19" value="" style="text;strokeColor=none;fillColor=none;align=left;verticalAlign=middle;spacingTop=-1;spacingLeft=4;spacingRight=4;rotatable=0;labelPosition=right;points=[];portConstraint=eastwest;labelBackgroundColor=none;strokeWidth=1;fontColor=#000000;" parent="1" vertex="1">
                    <mxGeometry x="1351" y="429" width="20" height="14" as="geometry"/>
                </mxCell>
                <mxCell id="20" value="CheepCreateDTO*" style="text;html=1;align=center;verticalAlign=middle;resizable=0;points=[];autosize=1;strokeColor=none;fillColor=none;fontColor=#000000;" parent="1" vertex="1">
                    <mxGeometry x="1359" y="429" width="119" height="26" as="geometry"/>
                </mxCell>
                <mxCell id="21" style="edgeStyle=none;html=1;exitX=0.5;exitY=0;exitDx=0;exitDy=0;strokeColor=#000000;endArrow=classic;endFill=1;entryX=0.5;entryY=1.031;entryDx=0;entryDy=0;entryPerimeter=0;" parent="1" source="5" target="4" edge="1">
                    <mxGeometry relative="1" as="geometry">
                        <mxPoint x="1215.666692097982" y="329.5" as="targetPoint"/>
                    </mxGeometry>
                </mxCell>
            </root>
        </mxGraphModel>
    </diagram>
</mxfile>